# xmcd
#
# Track frame offsets:
#	150
#	26252
#	49441
#	69131
#	96245
#	116122
#	138699
#	157914
#	193641
#	210155
#	218245
#
# Disc length: 3273 seconds
# Revision: 0
# Processed by: cddbd v1.5.2PL0 Copyright (c) Steve Scherf et al.
# Submitted via: dBpowerAMP V12.0
#
DISCID=980cc70b
DTITLE=Walter Trout Band - Prisoner Of A Dream
DYEAR=1900
DGENRE=Blues
TTITLE0=Prisoner of a dream
TTITLE1=The love that we once knew
TTITLE2=Sweet as a flower
TTITLE3=Love in vain
TTITLE4=Victor the cajun
TTITLE5=Girl from the North
TTITLE6=False alarm
TTITLE7=Say goodbye to the blues
TTITLE8=You're the one
TTITLE9=Earrings on the table
TTITLE10=Tribute to Muddy Waters
EXTD=
EXTT0=
EXTT1=
EXTT2=
EXTT3=
EXTT4=
EXTT5=
EXTT6=
EXTT7=
EXTT8=
EXTT9=
EXTT10=
PLAYORDER=
